Special celebrating GH's 50th anniversary. Tried to get the 20-20 special on Sat. 4-6 but 

it botched the recording.                                                                  

                                        							

Enjoy and please share.										

												

												

TTLTTLTTLTTLTTLTTLTTLTTLTTLTTLTTLTTLTTLTTLTTLTTLTTLTTL						

												

												

										

Katie_General Hospital Tribute_720p.HDTV.x264_2013_04_04_TTL-1.mkv
Format                           : Matroska
File size                        : 832 MiB
Duration                         : 40mn 33s
Overall bit rate                 : 2 868 Kbps
Writing application              : HandBrake 0.9.5
Writing library                  : libmkv 0.6.4.1

Video
ID                               : 1
Format                           : AVC
Format/Info                      : Advanced Video Codec
Format profile                   : Main@L3.1
Format settings, CABAC           : Yes
Format settings, ReFrames        : 4 frames
Muxing mode                      : Container profile=Unknown@3.1
Codec ID                         : V_MPEG4/ISO/AVC
Duration                         : 40mn 30s
Bit rate                         : 2 683 Kbps
Nominal bit rate                 : 2 734 Kbps
Width                            : 1 280 pixels
Height                           : 720 pixels
Display aspect ratio             : 16:9
Frame rate mode                  : Variable
Frame rate                       : 29.970 fps
Resolution                       : 8 bits
Colorimetry                      : 4:2:0
Scan type                        : Progressive
Bits/(Pixel*Frame)               : 0.097
Stream size                      : 777 MiB (93%)
Writing library                  : x264 core 112
atrix coefficients              : BT.709-5, BT.1361, IEC 61966-2-4 709, SMPTE RP177

Audio                            : English
ID                               : 2
Format                           : AC-3
Format/Info                      : Audio Coding 3
Codec ID                         : A_AC3
Duration                         : 40mn 33s
Bit rate mode                    : Constant
Bit rate                         : 128 Kbps
Channel(s)                       : 2 channels
Channel positions                : L R
Sampling rate                    : 48.0 KHz
Stream size                      : 37.1 MiB (4%)

					
